<svg id="logo" xmlns="http://www.w3.org/2000/svg" width="198.183" height="44.551" viewBox="0 0 383.406 86.188">
  <defs>
    <style>
      .cls-1, .cls-4 {
        fill: #76ba3d;
      }

      .cls-1, .cls-2, .cls-3 {
        fill-rule: evenodd;
      }

      .cls-2 {
        fill: #787878;
      }

      .cls-3 {
        fill: #fff;
      }

      .cls-3, .cls-4 {
        stroke: #fff;
        stroke-width: 1px;
      }
    </style>
  </defs>
  <path id="Pro" class="cls-1" d="M344.348,274.573a9.169,9.169,0,0,1-2.664,3.133,11.807,11.807,0,0,1-3.894,1.88,17.1,17.1,0,0,1-4.677.627h-8.46V291.9h-2.327V260.563H333.7a16.16,16.16,0,0,1,4.722.649,10.959,10.959,0,0,1,3.67,1.88,8.5,8.5,0,0,1,2.4,3,9.25,9.25,0,0,1,.85,4.051v0.089A9.226,9.226,0,0,1,344.348,274.573Zm-1.343-4.3a7.457,7.457,0,0,0-.694-3.309,6.5,6.5,0,0,0-1.947-2.363,8.993,8.993,0,0,0-3-1.441,14.083,14.083,0,0,0-3.849-.5h-8.863v15.442h8.594a13.77,13.77,0,0,0,3.984-.54,9.111,9.111,0,0,0,3.066-1.553,7.2,7.2,0,0,0,1.992-2.455,7.082,7.082,0,0,0,.716-3.2v-0.09Zm20.813,0.851a9.751,9.751,0,0,0-3.76.739,8.99,8.99,0,0,0-3.155,2.193,10.69,10.69,0,0,0-2.171,3.581,13.779,13.779,0,0,0-.806,4.9V291.9h-2.193V269.067h2.193v6.49a12.884,12.884,0,0,1,1.7-2.819,11.26,11.26,0,0,1,2.328-2.216,9.892,9.892,0,0,1,2.842-1.388,10.182,10.182,0,0,1,3.245-.425v2.417h-0.224Zm25.715,13.921a11.879,11.879,0,0,1-6.2,6.423,11.372,11.372,0,0,1-4.7.962,11.221,11.221,0,0,1-4.678-.962,12.016,12.016,0,0,1-3.693-2.574,11.6,11.6,0,0,1-2.439-3.76,12.009,12.009,0,0,1-.873-4.565v-0.09a11.985,11.985,0,0,1,3.335-8.37,11.825,11.825,0,0,1,3.737-2.618,11.361,11.361,0,0,1,4.7-.963,11.2,11.2,0,0,1,4.677.963,12.013,12.013,0,0,1,3.693,2.573,11.607,11.607,0,0,1,2.44,3.76,12.028,12.028,0,0,1,.872,4.566v0.089A12.036,12.036,0,0,1,389.533,285.047Zm-1.455-4.566a10.3,10.3,0,0,0-.72-3.854,9.66,9.66,0,0,0-2-3.141,9.3,9.3,0,0,0-3.013-2.095,9.156,9.156,0,0,0-3.71-.757,9.036,9.036,0,0,0-3.756.78,9.234,9.234,0,0,0-2.969,2.094,9.556,9.556,0,0,0-1.934,3.1,10.319,10.319,0,0,0-.7,3.787v0.089a10.319,10.319,0,0,0,.719,3.854,9.664,9.664,0,0,0,2,3.142,9.288,9.288,0,0,0,3.014,2.094,9.152,9.152,0,0,0,3.71.757,9.027,9.027,0,0,0,3.756-.78,9.222,9.222,0,0,0,2.968-2.093,9.556,9.556,0,0,0,1.934-3.1,10.324,10.324,0,0,0,.7-3.788v-0.089Z" transform="translate(-7 -257)"/>
  <path id="Med" class="cls-2" d="M225.111,291.9h8.505v-17.9l7.967,12.175h0.179l8.013-12.264V291.9h8.639V260.562h-9.176l-7.476,12.13-7.475-12.13h-9.176V291.9Zm50.355,0.582a12.683,12.683,0,0,0,10.519-4.924l-4.7-3.894a7.305,7.305,0,0,1-5.371,2.462,5,5,0,0,1-5.237-3.984h16.2c0.045-.582.045-1.209,0.045-1.746,0-7.117-3.849-13.249-12.22-13.249-7.162,0-12.22,5.6-12.22,12.667v0.09C262.485,287.419,267.857,292.477,275.466,292.477ZM270.542,277.8c0.448-2.641,1.97-4.387,4.208-4.387,2.328,0,3.894,1.7,4.208,4.387h-8.416Zm29.81,14.637a8.977,8.977,0,0,0,7.386-3.76V291.9h8.5V259.219h-8.5v11.414a9.254,9.254,0,0,0-7.43-3.491c-5.73,0-10.654,4.789-10.654,12.667v0.09C289.654,287.643,294.623,292.432,300.352,292.432Zm2.6-7.117c-2.731,0-4.969-2.283-4.969-5.506V279.72c0-3.223,2.238-5.461,4.969-5.461s4.923,2.283,4.923,5.461v0.089C307.872,283.032,305.679,285.315,302.949,285.315Z" transform="translate(-7 -257)"/>
  <path id="Disposal" class="cls-2" d="M250.449,327.991a13.3,13.3,0,0,1-3.126,4.536,14.791,14.791,0,0,1-4.822,3.024,16.629,16.629,0,0,1-6.151,1.1h-9.522V308.047h9.522a16.937,16.937,0,0,1,6.151,1.083,14.548,14.548,0,0,1,4.822,3,13.366,13.366,0,0,1,3.126,4.516,14.2,14.2,0,0,1,1.1,5.619v0.082A14.352,14.352,0,0,1,250.449,327.991Zm-1.1-5.64a12.579,12.579,0,0,0-.92-4.8,11.873,11.873,0,0,0-2.595-3.937,12.218,12.218,0,0,0-4.086-2.665,14.166,14.166,0,0,0-5.4-.984h-7.4v24.766h7.4a14.42,14.42,0,0,0,5.4-.964,12.082,12.082,0,0,0,4.086-2.624,11.675,11.675,0,0,0,2.595-3.9,12.532,12.532,0,0,0,.92-4.818v-0.082Zm9.032-11.974v-2.738h2.493v2.738h-2.493Zm0.245,26.278V315.812h2v20.843h-2ZM281.9,333.5a5.654,5.654,0,0,1-1.533,1.917,7.125,7.125,0,0,1-2.288,1.224,9.064,9.064,0,0,1-2.82.427,13,13,0,0,1-4.578-.855,14.114,14.114,0,0,1-3.964-2.21L267.9,332.4a14.282,14.282,0,0,0,3.6,2.023,10.823,10.823,0,0,0,3.882.716,5.9,5.9,0,0,0,3.576-1.06,3.4,3.4,0,0,0,1.451-2.9v-0.082a2.665,2.665,0,0,0-.45-1.55,4.148,4.148,0,0,0-1.226-1.142,8.011,8.011,0,0,0-1.757-.815q-0.981-.326-2.084-0.653-1.267-.366-2.554-0.775a10.239,10.239,0,0,1-2.309-1.039,5.383,5.383,0,0,1-1.656-1.571,4.062,4.062,0,0,1-.633-2.325v-0.081a5.147,5.147,0,0,1,.511-2.3,5.668,5.668,0,0,1,1.41-1.815,6.4,6.4,0,0,1,2.166-1.2,8.639,8.639,0,0,1,2.779-.429,12.775,12.775,0,0,1,3.862.627,13.093,13.093,0,0,1,3.535,1.7l-1.063,1.676a13.834,13.834,0,0,0-3.085-1.513,10.15,10.15,0,0,0-3.331-.572,5.335,5.335,0,0,0-3.453,1.04,3.2,3.2,0,0,0-1.288,2.59v0.082a2.357,2.357,0,0,0,.491,1.488,4.229,4.229,0,0,0,1.287,1.081,10.293,10.293,0,0,0,1.86.795q1.062,0.346,2.166.673,1.266,0.368,2.493.8a9.267,9.267,0,0,1,2.206,1.1,5.542,5.542,0,0,1,1.574,1.611,4.276,4.276,0,0,1,.592,2.324v0.082A5.617,5.617,0,0,1,281.9,333.5Zm26.768-2.7a10.8,10.8,0,0,1-2.309,3.433,10.141,10.141,0,0,1-3.249,2.166,9.75,9.75,0,0,1-6.56.347,9.041,9.041,0,0,1-2.349-1.1,10.523,10.523,0,0,1-1.88-1.594,14.645,14.645,0,0,1-1.492-1.88v11.034h-2V315.812h2v4.659a14.48,14.48,0,0,1,1.512-1.962,10.343,10.343,0,0,1,1.9-1.634,9.728,9.728,0,0,1,2.33-1.124,8.936,8.936,0,0,1,2.84-.429,9.8,9.8,0,0,1,3.7.735,10.054,10.054,0,0,1,3.249,2.125,10.567,10.567,0,0,1,2.309,3.413,11.344,11.344,0,0,1,.878,4.557v0.081A11.338,11.338,0,0,1,308.665,330.79Zm-1.247-4.557a10.134,10.134,0,0,0-.656-3.719,8.461,8.461,0,0,0-1.782-2.84,7.989,7.989,0,0,0-5.755-2.431,8.051,8.051,0,0,0-3.176.653,8.621,8.621,0,0,0-2.724,1.839,9.1,9.1,0,0,0-1.9,2.82,8.965,8.965,0,0,0-.717,3.638v0.081a9.106,9.106,0,0,0,.717,3.658,8.656,8.656,0,0,0,4.629,4.638,8.017,8.017,0,0,0,3.176.654,8.394,8.394,0,0,0,3.216-.613,7.561,7.561,0,0,0,2.6-1.757,8.185,8.185,0,0,0,1.741-2.8,10.388,10.388,0,0,0,.635-3.74v-0.082Zm27.565,4.169a10.888,10.888,0,0,1-2.248,3.474,10.772,10.772,0,0,1-3.412,2.39,10.373,10.373,0,0,1-4.291.879,10.234,10.234,0,0,1-4.271-.879,10.954,10.954,0,0,1-3.372-2.349,10.585,10.585,0,0,1-2.227-3.433,10.978,10.978,0,0,1-.8-4.169v-0.082a10.942,10.942,0,0,1,3.045-7.642,10.834,10.834,0,0,1,3.412-2.391,10.392,10.392,0,0,1,4.291-.878,10.249,10.249,0,0,1,4.271.878,10.974,10.974,0,0,1,3.372,2.35,10.591,10.591,0,0,1,2.227,3.433,10.975,10.975,0,0,1,.8,4.169v0.081A10.975,10.975,0,0,1,334.983,330.4Zm-1.328-4.169a9.417,9.417,0,0,0-.657-3.519,8.792,8.792,0,0,0-1.828-2.867,8.47,8.47,0,0,0-2.751-1.913,8.358,8.358,0,0,0-3.387-.691,8.241,8.241,0,0,0-3.429.712,8.425,8.425,0,0,0-2.711,1.912,8.7,8.7,0,0,0-1.766,2.828,9.407,9.407,0,0,0-.636,3.457v0.081a9.409,9.409,0,0,0,.657,3.519,8.831,8.831,0,0,0,1.827,2.869,8.5,8.5,0,0,0,2.752,1.912,8.358,8.358,0,0,0,3.387.691,8.256,8.256,0,0,0,3.43-.712,8.412,8.412,0,0,0,2.71-1.912,8.706,8.706,0,0,0,1.765-2.827,9.417,9.417,0,0,0,.637-3.458v-0.082Zm21.68,7.262a5.663,5.663,0,0,1-1.532,1.917,7.119,7.119,0,0,1-2.289,1.224,9.055,9.055,0,0,1-2.82.427,13,13,0,0,1-4.577-.855,14.114,14.114,0,0,1-3.964-2.21l1.185-1.594a14.276,14.276,0,0,0,3.6,2.023,10.825,10.825,0,0,0,3.883.716,5.905,5.905,0,0,0,3.576-1.06,3.4,3.4,0,0,0,1.45-2.9v-0.082a2.672,2.672,0,0,0-.449-1.55,4.16,4.16,0,0,0-1.226-1.142,8.054,8.054,0,0,0-1.757-.815q-0.981-.326-2.085-0.653-1.268-.366-2.554-0.775a10.279,10.279,0,0,1-2.309-1.039,5.38,5.38,0,0,1-1.655-1.571,4.055,4.055,0,0,1-.634-2.325v-0.081a5.147,5.147,0,0,1,.511-2.3,5.7,5.7,0,0,1,1.41-1.815,6.4,6.4,0,0,1,2.166-1.2,8.643,8.643,0,0,1,2.779-.429,12.775,12.775,0,0,1,3.862.627,13.079,13.079,0,0,1,3.535,1.7l-1.062,1.676a13.82,13.82,0,0,0-3.086-1.513,10.146,10.146,0,0,0-3.331-.572,5.335,5.335,0,0,0-3.453,1.04,3.2,3.2,0,0,0-1.287,2.59v0.082a2.356,2.356,0,0,0,.49,1.488A4.222,4.222,0,0,0,345,323.605a10.281,10.281,0,0,0,1.859.795q1.062,0.346,2.166.673,1.266,0.368,2.493.8a9.274,9.274,0,0,1,2.207,1.1,5.538,5.538,0,0,1,1.573,1.611,4.268,4.268,0,0,1,.593,2.324v0.082A5.6,5.6,0,0,1,355.335,333.5Zm21.231,3.16v-3.474a10.461,10.461,0,0,1-1.288,1.451,8.762,8.762,0,0,1-1.737,1.267,10,10,0,0,1-2.227.9,10.122,10.122,0,0,1-2.718.347,10.527,10.527,0,0,1-2.9-.409,8.288,8.288,0,0,1-2.575-1.226,6.5,6.5,0,0,1-1.859-2.043,5.572,5.572,0,0,1-.716-2.861v-0.081a6.078,6.078,0,0,1,.675-2.9,6.18,6.18,0,0,1,1.859-2.125,8.661,8.661,0,0,1,2.861-1.308,14.369,14.369,0,0,1,3.719-.45,25.333,25.333,0,0,1,3.8.246,28.582,28.582,0,0,1,3.106.654v-0.894a5.973,5.973,0,0,0-1.819-4.755,7.434,7.434,0,0,0-5.047-1.585,12.408,12.408,0,0,0-3.515.47,17.289,17.289,0,0,0-3.024,1.206l-0.736-1.76a21.329,21.329,0,0,1,3.474-1.336,14.33,14.33,0,0,1,3.923-.5,9.336,9.336,0,0,1,6.376,2.044q2.329,2.043,2.329,6.13v13h-1.961Zm0.04-10.18q-1.308-.326-3.065-0.631a23.628,23.628,0,0,0-4-.305,8.412,8.412,0,0,0-5.088,1.323,4.172,4.172,0,0,0-1.777,3.519v0.082a4.048,4.048,0,0,0,.49,2.014,4.6,4.6,0,0,0,1.328,1.486,6.283,6.283,0,0,0,1.941.936,8.046,8.046,0,0,0,2.289.325,9.663,9.663,0,0,0,3.024-.468,8.308,8.308,0,0,0,2.514-1.3,6.277,6.277,0,0,0,1.716-2.014,5.423,5.423,0,0,0,.633-2.605v-2.36Zm9.4,10.18V306.821h2v29.834h-2Z" transform="translate(-7 -257)"/>
  <path id="figure" class="cls-2" d="M53.92,286.37l18.3-29.193h28.622V340.99H73.158V299.554L53.92,329.219l-19.707-29.9V340.99H7V257.177H36.091Z" transform="translate(-7 -257)"/>
  <path id="figure-2" data-name="figure" class="cls-1" d="M106.94,257.177V340.99h27.683s0.169-22.432,0-22.6c8.414,0.169,47.39,2.831,47.39-30.606s-38.957-30.944-47.54-30.606H106.94Z" transform="translate(-7 -257)"/>
  <path id="line" class="cls-3" d="M136.037,269.9h10.3v32.025h-10.3V269.9Z" transform="translate(-7 -257)"/>
  <path id="line-2" data-name="line" class="cls-3" d="M125.231,280.711h31.913v10.37H125.231v-10.37Z" transform="translate(-7 -257)"/>
  <rect id="line-3" data-name="line" class="cls-4" x="192" y="1" width="3" height="83"/>
</svg>
